<?xml version="1.0" standalone="no"?>
<!DOCTYPE svg PUBLIC "-//W3C//DTD SVG 20010904//EN"
 "http://www.w3.org/TR/2001/REC-SVG-20010904/DTD/svg10.dtd">
<svg version="1.0" xmlns="http://www.w3.org/2000/svg"
 width="512.000000pt" height="512.000000pt" viewBox="0 0 512.000000 512.000000"
 preserveAspectRatio="xMidYMid meet">
<metadata>
Created by potrace 1.14, written by Peter Selinger 2001-2017
</metadata>
<g transform="translate(0.000000,512.000000) scale(0.100000,-0.100000)"
fill="#000000" stroke="none">
<path d="M2560 4961 c-49 -26 -91 -81 -97 -129 -9 -68 31 -153 83 -172 24 -9
23 -11 -79 -215 -96 -194 -104 -206 -143 -225 -73 -36 -127 -30 -189 22 -40
34 -171 140 -217 176 -29 22 -46 43 -43 52 2 8 10 33 16 55 18 61 5 108 -44
159 -67 69 -152 73 -224 11 -80 -69 -81 -175 -3 -247 26 -23 55 -39 80 -43
l39 -7 40 -126 c22 -70 69 -226 106 -347 100 -331 124 -400 146 -423 22 -25
69 -50 113 -63 32 -9 813 -13 879 -4 89 12 155 69 180 155 9 30 48 159 87 285
64 208 131 429 149 495 6 19 17 26 50 33 52 10 125 78 136 126 13 61 -4 112
-51 159 -58 56 -97 57 -153 6 -62 -55 -76 -136 -36 -198 15 -23 13 -25 -97
-117 -62 -51 -115 -96 -118 -99 -20 -23 -91 -70 -113 -75 -45 -12 -110 3 -143
33 -36 31 -148 247 -138 264 4 6 3 8 -3 5 -5 -3 -26 28 -46 69 -20 41 -33 74
-28 74 18 0 80 72 91 106 46 137 -106 272 -230 205z"/>
<path d="M1400 2915 c0 -74 2 -85 18 -86 9 0 31 -2 47 -4 17 -2 63 -6 103 -9
69 -6 123 -24 137 -46 4 -6 8 -22 11 -35 2 -14 6 -37 9 -52 14 -84 20 -377 19
-1053 0 -887 -9 -1155 -40 -1228 -20 -49 -71 -65 -239 -77 -27 -2 -54 -4 -58
-4 -4 -1 -6 -45 -5 -98 l3 -98 677 0 678 0 0 83 0 82 -32 1 c-18 1 -44 2 -58
4 -14 1 -61 5 -105 9 -194 16 -199 22 -209 236 -11 230 -20 785 -20 1220 0
431 10 979 18 987 2 3 19 7 38 9 18 3 49 9 68 13 100 22 295 5 395 -35 132
-52 225 -178 260 -354 15 -71 14 -267 -1 -332 -44 -195 -156 -316 -337 -363
-71 -18 -205 -16 -193 4 2 3 -15 6 -39 5 -27 0 -50 -7 -63 -20 l-21 -20 34
-72 c25 -51 41 -73 57 -77 169 -38 408 -26 577 31 161 54 311 164 420 308 66
87 104 163 137 273 23 76 27 107 28 228 1 157 -10 216 -57 313 -38 79 -101
151 -179 203 -60 41 -173 89 -208 89 -11 0 -20 5 -20 11 0 5 -4 8 -8 5 -4 -2
-52 1 -107 9 -75 10 -266 13 -775 12 -371 -1 -739 2 -817 6 l-143 7 0 -85z"/>
</g>
</svg>
